<?xml version="1.0" encoding="utf-8"?>
<!-- Generator: Adobe Illustrator 21.1.0, SVG Export Plug-In . SVG Version: 6.00 Build 0)  -->
<svg version="1.1" id="Layer_1" xmlns="http://www.w3.org/2000/svg" xmlns:xlink="http://www.w3.org/1999/xlink" x="0px" y="0px"
	 viewBox="0 0 700 700" style="enable-background:new 0 0 700 700;" xml:space="preserve">
<style type="text/css">
	.st0{fill:#FF4935;}
</style>
<g>
	<path class="st0" d="M642,73.1c-1.5-5.7-7.3-9.1-13-7.5c-5.7,1.5-9,7.4-7.5,13c23.8,88.9,39.8,238.7,9.7,297.7
		c-24.7,48.2-37.9,73.8-46.2,88.7c-21.3,38.1-85.5,73.5-109.6,86.9c-4.1,2.3-7.2,4-8.7,4.9c-30.4,19.1-85.5,44.9-96.1,40.7
		c-5-2.8-5.2-5.2-5.3-6.1c-0.3-4.6,4.3-11.2,6.8-13.1c0.7-0.5,17.6-13.2,71.9-39.4c0.7-0.3,1.3-0.7,1.9-1.2
		c1.3-1,32.4-25.3,48.9-42.2c46.1-46.9,49.8-109.1,34.8-134.2c-13-21.7-37.2-34.2-64.1-33.4c-22.4,0.6-42.4,10.4-49.7,24.3
		c-23.1,44-40.5,45.1-55.1,40.7c0.1-0.7,0.4-1.6,0.9-2.7c3.6-8.6,6.8-17,9.8-25.1c6.4-17,11.9-31.6,18.9-40.4
		c12.7-16,47.8-45.1,67-50.8C508.9,258.7,566.4,257,567,257c5.9-0.1,10.5-5,10.4-10.9s-5.1-10.7-10.9-10.4c-1,0-11,0.3-26.1,1.7
		c-4.4-11.9-59.2-139.3-66.3-155.2c-2.4-5.4-8.7-7.7-14.1-5.3c-5.4,2.4,40.7,122,43.1,127.4c6,13.4,11.4,25.3,15.4,35.5
		c-20,2.6-44,6.8-67.2,13.7c-24.7,7.3-63.1,39.7-77.6,57.9c-9.1,11.4-15.1,27.5-22.2,46.1c-0.5,1.4-1.1,2.8-1.6,4.1
		c-0.5-1.4-1.1-2.8-1.6-4.1c-7-18.6-13.1-34.7-22.2-46.1c-14.5-18.2-52.9-50.7-77.6-57.9c-23.2-6.9-47.2-11.1-67.2-13.7
		c4-10.2,9.4-22.2,15.4-35.5c2.4-5.4,53.5-127,48.1-129.4c-5.4-2.4-11.7,0-14.1,5.3c-7.2,15.9-66.9,145.3-71.4,157.2
		c-15.1-1.3-25.1-1.7-26.1-1.7c-5.7-0.2-10.8,4.5-10.9,10.4s4.5,10.8,10.4,10.9c0.6,0,58.1,1.7,109.7,16.9
		c19.1,5.6,54.2,34.8,67,50.8c7,8.8,12.5,23.4,18.9,40.4c3,8.1,6.2,16.4,9.8,25c0.5,1.1,0.7,2,0.9,2.7c-14.6,4.4-32.1,3.3-55.1-40.7
		c-7.3-13.9-27.2-23.6-49.7-24.3c-27.2-0.8-51.1,11.7-64.1,33.4c-15,25.1-11.3,87.3,34.8,134.2c16.6,16.8,47.6,41.1,48.9,42.2
		c0.6,0.5,1.2,0.9,1.9,1.2c54.3,26.2,71.2,38.8,72,39.4c2.5,1.9,7.1,8.5,6.8,13.1c-0.1,0.9-0.2,3.4-5.2,6.1
		c-10.7,4.2-65.8-21.6-96.2-40.7c-1.6-1-4.6-2.7-8.7-4.9c-24.2-13.3-88.3-48.8-109.6-86.9c-8.4-14.9-22.1-41.6-46.2-88.7
		c-30.1-59,0.9-208.8,24.7-297.7c1.5-5.7-1.9-11.5-7.5-13c-5.7-1.5-11.5,1.9-13,7.5c-21.7,81.3-60.3,240-23,312.9
		c24.7,48.4,38,74.1,46.6,89.4c5.4,9.6,13,19,21.8,27.9c0.9,1.4,1.9,3.1,3.1,5.1c10.3,17.1,31.8,52.5,63.7,76.7
		c15.5,11.8,46.9,30.9,84.2,46.1c6.4,2.6,12.6,3.7,18.4,3.7c16.3,0,29.7-8.5,37.4-16.2c0.8,0,1.7,0.2,2.5,0.2
		c4.7,0,8.8-0.8,12.1-2.6c4.6-2.5,7.9-5.4,10.3-8.3c2.4,2.9,5.7,5.8,10.3,8.3c3.2,1.8,7.3,2.6,12.1,2.6c0.8,0,1.7,0,2.6-0.1
		c7.8,7.6,21.1,16.1,37.3,16.1c5.8,0,12-1.1,18.4-3.7c37.4-15.2,68.7-34.3,84.2-46c31.9-24.2,53.4-59.6,63.7-76.7
		c1.2-2,2.2-3.7,3.1-5.1c8.8-8.9,16.4-18.2,21.8-27.9c8.5-15.2,21.8-40.9,46.6-89.4C687.4,313.1,663.8,154.4,642,73.1L642,73.1z
		 M277.3,611.4c-46.6-18.9-76.1-40.9-79.3-43.3c-7.8-5.9-14.9-12.7-21.4-19.7c15.3,9.7,29.1,17.3,37.9,22.2c3.6,2,6.3,3.5,7.7,4.3
		c0.6,0.4,39.9,24.9,74.4,37.2C291,613.8,284.5,614.3,277.3,611.4L277.3,611.4z M359.2,561.3c-2.8,2.1-6.3,5.9-9.2,10.6
		c-2.9-4.7-6.4-8.4-9.2-10.5c-8.6-6.5-33.2-21.1-74.5-41.1c-5.2-4.1-31.9-25.3-46-39.6c-39.4-40.1-41.6-91.9-31.7-108.3
		c12.9-21.6,35.9-23.4,45.2-23.1c15.7,0.4,28.3,6.9,31.4,12.9c24.3,46.3,50.1,61.7,83.7,50.1c0.4-0.1,0.7-0.3,1.1-0.5
		c0.4,0.2,0.7,0.4,1.1,0.5c33.6,11.7,59.4-3.8,83.7-50.1c3.1-6,15.8-12.4,31.4-12.9c9.2-0.3,32.3,1.5,45.2,23.1
		c9.9,16.5,7.7,68.2-31.7,108.3c-14.1,14.3-40.8,35.5-46,39.6C392.4,540.2,367.8,554.8,359.2,561.3L359.2,561.3z M502.1,568.1
		c-3.2,2.4-32.7,24.4-79.3,43.3c-7.2,2.9-13.8,2.4-19.2,0.6c34.5-12.2,73.8-36.8,74.4-37.1c1.4-0.9,4-2.3,7.7-4.3
		c8.8-4.9,22.6-12.5,37.9-22.2C517,555.4,509.9,562.2,502.1,568.1L502.1,568.1z"/>
</g>
</svg>
