<?xml version="1.0" encoding="utf-8"?>
<!-- Generator: Adobe Illustrator 21.1.0, SVG Export Plug-In . SVG Version: 6.00 Build 0)  -->
<svg version="1.1" id="Layer_1" xmlns="http://www.w3.org/2000/svg" xmlns:xlink="http://www.w3.org/1999/xlink" x="0px" y="0px"
	 viewBox="0 0 700 700" style="enable-background:new 0 0 700 700;" xml:space="preserve">
<style type="text/css">
	.st0{fill:#FF4935;}
</style>
<g>
	<path class="st0" d="M611.7,623.6h-525c-7,0-11.7-4.7-11.7-11.7v-385c0-7,4.7-11.7,11.7-11.7h525c7,0,11.7,4.7,11.7,11.7v385
		C623.4,618.9,618.7,623.6,611.7,623.6z M98.4,600.2h501.7V238.6H98.4V600.2z"/>
	<path class="st0" d="M611.7,238.6h-525c-4.7,0-8.2-2.3-10.5-5.8s-2.3-8.2,1.2-11.7l93.3-140c2.3-3.5,5.8-4.7,9.3-4.7h337.2
		c3.5,0,7,2.3,9.3,4.7l93.3,140c2.3,3.5,2.3,8.2,1.2,11.7S616.4,238.6,611.7,238.6L611.7,238.6z M108.9,215.2h481.8L512.5,98.6H187
		L108.9,215.2z"/>
	<path class="st0" d="M337.5,86.9h23.3v256.7h-23.3V86.9z"/>
	<path class="st0" d="M320,477.7h-2.3c-3.5,0-7-1.2-9.3-4.7c-5.8-8.2-15.2-12.8-25.7-12.8c-9.3,0-16.3,4.7-21,8.2s-10.5,3.5-15.2,0
		s-11.7-8.2-21-8.2s-16.3,4.7-21,8.2s-10.5,3.5-15.2,0s-11.7-8.2-21-8.2c-10.5,0-19.8,4.7-25.7,12.8c0,2.3-3.5,4.7-7,4.7h-2.3
		c-7,0-11.7-4.7-11.7-11.7c0-58.3,46.7-105,105-105s105,46.7,105,105C331.7,471.9,327,477.7,320,477.7L320,477.7z M226.7,436.9
		c10.5,0,19.8,2.3,28,8.2c15.2-9.3,33.8-10.5,50.2-3.5c-10.5-33.8-42-57.2-78.2-57.2s-67.7,24.5-78.2,57.2c15.2-7,35-5.8,50.2,3.5
		C206.9,439.2,216.2,436.9,226.7,436.9z"/>
	<path class="st0" d="M203.4,576.9c-19.8,0-35-14-35-31.5v-11.7h23.3v11.7c0,3.5,4.7,8.2,11.7,8.2s11.7-4.7,11.7-8.2v-96.8h23.3
		v96.8C238.4,562.9,223.2,576.9,203.4,576.9z"/>
</g>
</svg>
