<?xml version="1.0" encoding="utf-8"?>
<!-- Generator: Adobe Illustrator 21.1.0, SVG Export Plug-In . SVG Version: 6.00 Build 0)  -->
<svg version="1.1" id="Layer_1" xmlns="http://www.w3.org/2000/svg" xmlns:xlink="http://www.w3.org/1999/xlink" x="0px" y="0px"
	 viewBox="0 0 700 700" style="enable-background:new 0 0 700 700;" xml:space="preserve">
<style type="text/css">
	.st0{fill:#FF4935;}
</style>
<g>
	<path class="st0" d="M591,130c5.8,0,10.5-4.7,10.5-10.5V77.6c0-5.8-4.7-10.5-10.5-10.5s-10.5,4.7-10.5,10.5v41.9
		C580.5,125.3,585.2,130,591,130z"/>
	<path class="st0" d="M591,150.9c-5.8,0-10.5,4.7-10.5,10.5v41.9c0,5.8,4.7,10.5,10.5,10.5s10.5-4.7,10.5-10.5v-41.9
		C601.4,155.6,596.7,150.9,591,150.9z"/>
	<path class="st0" d="M653.8,130h-41.9c-5.8,0-10.5,4.7-10.5,10.5s4.7,10.5,10.5,10.5h41.9c5.8,0,10.5-4.7,10.5-10.5
		S659.6,130,653.8,130z"/>
	<path class="st0" d="M528.1,150.9H570c5.8,0,10.5-4.7,10.5-10.5S575.8,130,570,130h-41.9c-5.8,0-10.5,4.7-10.5,10.5
		S522.3,150.9,528.1,150.9z"/>
	<path class="st0" d="M109,130c5.8,0,10.5-4.7,10.5-10.5V77.6c0-5.8-4.7-10.5-10.5-10.5s-10.5,4.7-10.5,10.5v41.9
		C98.6,125.3,103.3,130,109,130z"/>
	<path class="st0" d="M109,150.9c-5.8,0-10.5,4.7-10.5,10.5v41.9c0,5.8,4.7,10.5,10.5,10.5s10.5-4.7,10.5-10.5v-41.9
		C119.5,155.6,114.8,150.9,109,150.9z"/>
	<path class="st0" d="M130,150.9h41.9c5.8,0,10.5-4.7,10.5-10.5s-4.7-10.5-10.5-10.5H130c-5.8,0-10.5,4.7-10.5,10.5
		S124.2,150.9,130,150.9z"/>
	<path class="st0" d="M98.6,140.5c0-5.8-4.7-10.5-10.5-10.5H46.2c-5.8,0-10.5,4.7-10.5,10.5S40.4,151,46.2,151h41.9
		C93.9,150.9,98.6,146.3,98.6,140.5z"/>
	<path class="st0" d="M643,341.2c0.1-0.7,0.2-1.5,0.2-2.2c0-0.2,0.1-0.5,0.1-0.7c0-0.4-0.3-0.7-0.3-1.1c-0.2-0.7-0.4-1.4-0.7-2.1
		c-0.3-0.6-0.6-1.2-1-1.7c-0.2-0.3-0.3-0.7-0.6-1L535.9,217.2c-0.4-0.4-0.9-0.6-1.3-1c-0.5-0.4-0.9-0.9-1.5-1.2
		c-0.1-0.1-0.3-0.1-0.4-0.1c-0.6-0.3-1.2-0.4-1.8-0.6c-0.8-0.2-1.5-0.5-2.3-0.5c-0.2,0-0.3-0.1-0.4-0.1H171.9
		c-0.2,0-0.3,0.1-0.4,0.1c-0.8,0-1.5,0.3-2.3,0.5c-0.6,0.2-1.2,0.3-1.8,0.6c-0.1,0.1-0.3,0.1-0.4,0.1c-0.6,0.3-1,0.8-1.5,1.2
		c-0.4,0.3-0.9,0.5-1.3,1L59.4,332.5c-0.3,0.3-0.4,0.7-0.6,1c-0.4,0.6-0.8,1.1-1.1,1.7c-0.3,0.7-0.5,1.4-0.7,2.1
		c-0.1,0.4-0.3,0.7-0.4,1.1c0,0.2,0.1,0.5,0.1,0.7c0,0.8,0.1,1.5,0.2,2.2c0.1,0.6,0.2,1.2,0.4,1.7c0.2,0.6,0.6,1.2,0.9,1.8
		c0.3,0.6,0.7,1.2,1.1,1.7c0.1,0.2,0.2,0.4,0.3,0.5l282.9,282.9c0.2,0.2,0.4,0.2,0.5,0.4c0.7,0.6,1.5,1.1,2.3,1.6
		c0.3,0.2,0.6,0.3,0.9,0.5c1.1,0.4,2.3,0.7,3.6,0.7c1.3,0,2.4-0.3,3.6-0.7c0.3-0.1,0.6-0.3,0.9-0.5c0.9-0.4,1.6-0.9,2.3-1.6
		c0.2-0.1,0.4-0.2,0.5-0.4L640,347c0.1-0.1,0.2-0.4,0.3-0.5c0.5-0.5,0.8-1.1,1.1-1.7s0.7-1.2,0.9-1.8
		C642.9,342.4,642.9,341.8,643,341.2L643,341.2z M169.7,242.3l56.8,105.4L88.6,331.5L169.7,242.3z M611.4,331.5l-137.9,16.2
		l56.8-105.4L611.4,331.5z M439.3,371L350,594.2L260.7,371H439.3z M266.5,350L350,241.5L433.5,350H266.5z M453.2,341.3l-81.9-106.5
		h139.3L453.2,341.3z M246.8,341.3l-57.3-106.5h139.3L246.8,341.3z M237.8,370.2l83.5,208.7L95.9,353.5L237.8,370.2z M462.2,370.2
		l141.9-16.7L378.7,578.9L462.2,370.2z"/>
</g>
</svg>
