<?xml version="1.0" encoding="utf-8"?>
<!-- Generator: Adobe Illustrator 21.1.0, SVG Export Plug-In . SVG Version: 6.00 Build 0)  -->
<svg version="1.1" id="Layer_1" xmlns="http://www.w3.org/2000/svg" xmlns:xlink="http://www.w3.org/1999/xlink" x="0px" y="0px"
	 viewBox="0 0 700 700" style="enable-background:new 0 0 700 700;" xml:space="preserve">
<style type="text/css">
	.st0{fill:#FF4935;}
</style>
<g>
	<path class="st0" d="M273.3,328.2c26.2,0,48.8-20.5,59.8-32.7c3.8-4.1,5.9-9.6,5.9-15.2s-2.1-11.1-5.9-15.2
		c-11.2-12.2-33.6-32.7-59.8-32.7c-13.1-0.5-25.9,4.4-35.5,13.3c-9.6,9-15.3,21.4-15.7,34.5c0.5,13.1,6.2,25.5,15.7,34.5
		C247.5,323.9,260.2,328.7,273.3,328.2z M273.3,253.9c18.7,0,37,18,44.1,25.7c0.5,0.5,0.5,1.3,0,1.8c-7.1,7.7-25.4,25.7-44.1,25.7
		c-7.5,0.5-14.8-2.2-20.4-7.2s-9-12-9.6-19.5c0.5-7.5,3.9-14.5,9.6-19.5C258.5,256,265.8,253.4,273.3,253.9L273.3,253.9z"/>
	<path class="st0" d="M426.1,328.2c13.1,0.5,25.9-4.4,35.4-13.3c9.6-9,15.3-21.3,15.7-34.5c-0.5-13.1-6.2-25.5-15.7-34.5
		c-9.6-9-22.3-13.8-35.4-13.3c-26.5,0-49.2,21-60.4,33.5l0,0c-3.5,4-5.4,9.1-5.4,14.4s1.9,10.4,5.4,14.4
		C376.9,307.3,399.7,328.2,426.1,328.2L426.1,328.2z M426.1,253.9c7.5-0.3,14.8,2.2,20.4,7.2s9,12,9.5,19.5
		c-0.5,7.5-3.9,14.5-9.5,19.5s-12.9,7.5-20.4,7.2c-18.9,0-37.5-18.5-44.5-26.8C388.7,272.3,407.2,253.9,426.1,253.9L426.1,253.9z"/>
	<path class="st0" d="M296.5,423.9c0,19,10.1,36.6,26.5,46c16.4,9.5,36.7,9.5,53.2,0c16.4-9.5,26.5-27,26.5-46
		c0-8.4-3.4-16.5-9.3-22.6c-5.9-6-14.1-9.3-22.6-9.3h-42.5c-8.4,0-16.5,3.4-22.6,9.3C299.8,407.3,296.5,415.5,296.5,423.9
		L296.5,423.9z M381.6,423.9c0,8.4-3.3,16.6-9.3,22.6s-14.1,9.3-22.6,9.3s-16.5-3.3-22.6-9.3c-6-6-9.3-14.1-9.3-22.6
		c0-5.9,4.8-10.6,10.6-10.6h42.5c2.8,0,5.5,1.1,7.5,3.1C380.4,418.4,381.6,421.2,381.6,423.9L381.6,423.9z"/>
	<path class="st0" d="M554.1,471.7c-2.3-0.8-4.6-1.5-6.7-2.4c-17.7-5.5-32.8-17.1-42.7-32.8c1.6-5.4,2.7-10.7,3.4-16.3l21.5-198.1
		l0,0c5.2-47.8-10.3-95.7-42.7-131.2c-35.3-38.4-85.1-60.3-137.2-60.3S247.8,52.4,212.6,90.8c-32.5,35.5-48.1,83.4-42.7,131.2
		l21.5,198.2l0,0c0.7,5.5,1.8,10.8,3.4,16.1c-9.9,15.7-25.1,27.3-42.8,32.8c-2.2,0.8-4.3,1.6-6.7,2.4c-9.8,2.8-18.2,9.3-23.5,18.1
		c-5.2,8.8-7.1,19.3-5,29.3c19.6,86.7,117.6,149.6,232.9,149.6s213.4-62.9,233-149.5c2.1-10,0.2-20.5-5-29.3
		C572.3,481,563.8,474.5,554.1,471.7L554.1,471.7z M191,219.8c-4.7-41.8,9-83.6,37.5-114.7c31.1-34,75.1-53.3,121.2-53.3
		c46,0,90,19.4,121.2,53.3c28.5,31.1,42.2,72.9,37.5,114.7l-21.5,197.9c-2.1,16.5-9.1,32-20.2,44.5c-22.8,25.4-68.1,68-117,68
		s-94.2-42.6-116.9-68c-11.1-12.4-18.1-27.9-20.2-44.3L191,219.8z M561.9,514.4c-17.4,77-106.8,132.8-212.2,132.8
		s-194.7-55.9-212.2-133c-0.8-4.9,0.3-9.9,3-14s6.8-7.2,11.6-8.4c2.7-0.9,5.5-1.8,7.9-2.8c17.2-6.2,32.6-16.3,44.9-29.7
		c3.4,6.2,7.5,12,12.2,17.2c25.1,27.9,75.6,75,132.7,75s107.7-47.1,132.7-75.1c4.7-5.4,8.7-11.1,12.2-17.2
		c12.3,13.4,27.7,23.7,44.8,29.7c2.5,1,5.2,1.9,8.2,3l0,0c4.8,1.3,8.9,4.3,11.5,8.4C561.7,504.5,562.7,509.5,561.9,514.4
		L561.9,514.4z"/>
</g>
</svg>
